<?xml version="1.0" standalone="no"?>
<!DOCTYPE svg PUBLIC "-//W3C//DTD SVG 20010904//EN"
 "http://www.w3.org/TR/2001/REC-SVG-20010904/DTD/svg10.dtd">
<svg version="1.0" xmlns="http://www.w3.org/2000/svg"
 width="800.000000pt" height="800.000000pt" viewBox="0 0 800.000000 800.000000"
 preserveAspectRatio="xMidYMid meet">
<metadata>
Created by potrace 1.11, written by Peter Selinger 2001-2013
</metadata>
<g transform="translate(0.000000,800.000000) scale(0.100000,-0.100000)"
fill="#000000" stroke="none">
<path d="M3685 7468 c-33 -4 -89 -13 -125 -19 -36 -6 -78 -13 -95 -16 -36 -6
-58 -11 -65 -13 -3 -1 -9 -3 -15 -4 -5 -1 -23 -5 -40 -9 -16 -4 -39 -9 -50
-11 -11 -3 -60 -19 -110 -36 -49 -17 -94 -32 -100 -34 -5 -1 -20 -7 -32 -14
-12 -7 -26 -12 -32 -12 -6 0 -77 -32 -158 -72 -82 -39 -151 -70 -155 -70 -5 1
-8 -3 -8 -8 0 -6 -4 -10 -9 -10 -10 0 -130 -69 -151 -88 -8 -7 -40 -29 -71
-50 -64 -42 -86 -59 -195 -157 -94 -84 -304 -294 -304 -304 0 -4 -16 -25 -36
-47 -35 -38 -204 -285 -204 -298 0 -3 -18 -36 -40 -73 -42 -69 -162 -345 -176
-405 -1 -5 -3 -10 -4 -13 -1 -3 -3 -8 -4 -12 -2 -5 -8 -28 -16 -53 -7 -25 -14
-50 -16 -56 -1 -6 -11 -49 -22 -95 -12 -46 -23 -103 -27 -126 -3 -23 -12 -73
-19 -111 -9 -46 -13 -154 -13 -321 0 -250 11 -369 46 -501 7 -25 16 -61 21
-80 13 -52 68 -235 95 -315 45 -134 126 -340 163 -415 14 -30 27 -57 27 -60 3
-19 292 -597 305 -610 6 -6 31 -50 62 -111 13 -24 26 -46 29 -49 3 -3 9 -12
13 -20 13 -28 180 -299 236 -385 8 -13 28 -45 44 -72 16 -26 53 -82 83 -125
29 -42 53 -81 53 -87 0 -6 5 -11 10 -11 6 0 10 -6 10 -14 0 -8 4 -16 8 -18 5
-1 25 -28 45 -58 20 -30 40 -59 45 -65 4 -5 15 -22 24 -36 9 -14 23 -32 30
-40 8 -8 23 -27 33 -44 19 -30 148 -205 189 -256 12 -15 30 -39 41 -55 25 -35
145 -185 162 -202 7 -8 26 -30 41 -50 15 -20 36 -46 47 -58 11 -11 45 -49 75
-85 89 -104 322 -339 337 -339 7 0 13 -4 13 -9 0 -15 121 -102 179 -129 39
-18 69 -24 110 -23 129 3 195 47 455 306 154 153 214 219 362 400 54 66 102
122 106 123 5 2 8 10 8 17 0 7 3 15 8 17 4 2 32 35 62 73 30 39 60 76 67 83 7
7 13 20 13 28 0 8 5 14 10 14 6 0 14 8 17 18 4 9 15 26 26 37 10 11 50 67 90
125 183 269 213 313 222 328 30 49 71 107 78 110 4 2 7 8 7 13 0 11 72 123 83
127 4 2 7 8 7 13 0 6 18 37 40 69 22 32 40 63 40 69 0 5 6 16 13 23 10 10 155
260 211 363 6 11 17 28 25 38 8 9 11 17 6 17 -4 0 -3 6 3 13 22 27 179 333
242 472 53 116 57 126 100 230 22 55 45 109 50 120 5 11 16 43 26 70 10 28 21
55 24 60 7 10 32 80 36 100 2 12 63 213 72 235 3 8 5 18 4 21 -1 4 3 22 9 40
5 19 11 45 14 59 3 14 7 36 10 50 3 14 8 43 10 65 3 22 9 63 13 90 9 58 9 571
0 600 -4 11 -9 40 -12 65 -3 25 -8 56 -11 70 -3 14 -7 36 -10 50 -3 14 -10 41
-15 60 -6 19 -13 46 -16 60 -11 56 -95 291 -138 387 -46 102 -126 264 -136
273 -3 3 -19 28 -35 55 -34 60 -100 155 -169 245 -63 83 -359 379 -417 416
-43 28 -70 49 -93 69 -23 22 -105 75 -115 75 -6 0 -11 4 -11 8 0 4 -12 13 -27
19 -28 12 -64 34 -73 43 -10 11 -215 110 -228 110 -6 0 -12 4 -12 10 0 5 -3 9
-7 8 -7 -2 -71 21 -148 52 -41 17 -181 62 -205 66 -14 2 -50 11 -80 19 -53 15
-89 23 -140 30 -14 3 -36 7 -50 10 -14 3 -56 7 -95 10 -38 2 -101 7 -140 11
-97 10 -397 11 -470 2z m732 -2410 c-3 -8 -6 -5 -6 6 -1 11 2 17 5 13 3 -3 4
-12 1 -19z"/>
</g>
</svg>
