<svg id="svg" version="1.1" width="400" height="366.70934699103714" viewBox="0 0 400 366.70934699103714" xmlns="http://www.w3.org/2000/svg" xmlns:xlink="http://www.w3.org/1999/xlink" ><g id="svgg"><path id="path0" d="M181.062 64.069 C 179.227 64.732,178.692 65.745,178.462 68.991 C 178.369 70.303,178.153 71.789,177.981 72.294 C 177.810 72.798,177.569 73.825,177.444 74.576 C 177.096 76.681,175.782 77.926,172.579 79.190 C 167.678 81.122,160.815 83.683,158.509 84.440 L 156.299 85.165 155.122 84.349 C 154.475 83.900,153.037 82.759,151.927 81.813 C 146.477 77.171,144.890 77.433,138.388 84.046 C 128.557 94.045,128.467 95.607,137.155 105.461 C 137.205 105.517,136.692 106.871,136.015 108.470 C 128.312 126.656,128.977 125.763,122.670 126.412 C 115.161 127.184,114.611 127.975,114.248 138.532 C 113.888 149.032,114.838 150.561,122.222 151.353 C 128.889 152.068,129.340 152.341,130.780 156.544 C 131.651 159.084,134.017 165.134,136.135 170.239 C 137.453 173.416,137.424 173.573,134.930 176.683 C 128.822 184.299,128.831 184.351,137.637 193.097 C 145.349 200.755,145.850 200.825,153.085 195.260 C 156.481 192.648,157.148 192.488,159.654 193.682 C 161.898 194.752,165.764 196.375,169.896 197.983 C 177.642 200.997,178.130 201.591,178.463 208.415 C 178.734 213.998,179.741 214.490,190.275 214.184 C 202.795 213.821,203.303 213.638,203.303 209.489 C 203.303 207.004,203.906 204.030,204.805 202.078 C 205.139 201.352,206.071 200.643,207.872 199.743 C 213.130 197.116,213.149 197.208,205.780 189.886 C 197.834 181.991,196.542 181.254,189.778 180.754 C 177.816 179.868,164.278 172.655,158.403 164.037 C 155.091 159.179,154.010 157.401,152.355 154.097 L 150.442 150.275 150.209 139.774 L 149.976 129.272 152.741 123.994 C 155.586 118.564,158.675 113.608,159.794 112.679 C 160.143 112.389,160.911 111.451,161.501 110.595 C 162.090 109.738,163.217 108.572,164.005 108.005 C 164.793 107.437,166.435 106.229,167.654 105.321 C 176.247 98.919,186.659 96.878,199.714 99.036 C 208.035 100.412,217.835 106.653,223.410 114.128 C 229.305 122.033,231.905 130.462,232.547 143.751 L 232.710 147.135 239.016 153.243 C 248.724 162.647,248.742 162.655,250.447 157.980 C 252.289 152.932,253.822 151.998,261.284 151.375 C 265.910 150.989,265.688 151.450,265.688 142.201 C 265.688 126.628,265.768 126.863,260.333 126.398 C 257.558 126.161,253.987 125.434,253.197 124.945 C 252.754 124.672,249.908 119.097,249.908 118.504 C 249.908 118.278,248.587 115.360,246.972 112.020 C 243.548 104.938,243.666 105.590,245.413 103.393 C 252.980 93.876,252.945 94.598,246.198 87.019 C 237.090 76.789,236.008 76.583,227.997 83.566 C 224.912 86.255,224.872 86.262,221.695 84.604 C 220.359 83.907,217.119 82.410,214.495 81.278 C 204.097 76.792,204.589 77.171,204.030 73.211 C 203.802 71.596,203.484 69.355,203.323 68.230 C 203.035 66.209,202.423 64.615,201.914 64.557 C 193.881 63.642,182.955 63.386,181.062 64.069 M182.018 108.524 C 178.139 109.230,178.760 110.462,188.073 120.534 C 194.997 128.021,198.302 131.880,198.471 132.671 C 198.704 133.771,186.587 146.789,185.329 146.789 C 184.991 146.789,182.540 144.766,179.883 142.294 C 162.094 125.744,163.228 126.676,162.353 127.872 C 160.676 130.166,159.835 141.692,161.054 145.688 C 165.529 160.365,177.133 168.974,194.183 170.265 C 200.826 170.768,201.117 170.995,225.248 194.363 C 244.159 212.676,252.163 220.332,252.920 220.833 C 253.383 221.139,254.835 222.410,256.147 223.657 C 263.064 230.233,264.677 231.193,268.807 231.193 C 278.901 231.193,286.326 218.170,280.655 210.413 C 278.138 206.971,276.480 204.980,273.509 201.835 C 271.698 199.917,270.062 198.068,269.875 197.726 C 269.510 197.059,247.648 174.519,231.468 158.125 L 221.651 148.180 221.645 140.604 C 221.631 124.336,216.184 115.611,202.595 110.090 C 198.860 108.573,186.795 107.654,182.018 108.524 " stroke="none" fill="#fcfcfc" fill-rule="evenodd"></path><path id="path1" d="M184.805 9.486 C 184.699 9.658,183.029 9.909,181.094 10.045 C 179.160 10.181,177.296 10.439,176.954 10.617 C 176.611 10.796,174.927 11.135,173.211 11.370 C 171.495 11.605,169.761 11.934,169.358 12.103 C 168.683 12.384,166.403 12.988,162.202 13.999 C 161.294 14.218,160.385 14.521,160.183 14.673 C 159.982 14.825,158.949 15.153,157.889 15.402 C 156.829 15.650,155.869 16.002,155.757 16.184 C 155.645 16.365,155.274 16.515,154.932 16.516 C 154.591 16.517,153.874 16.747,153.338 17.026 C 152.803 17.306,151.729 17.736,150.953 17.982 C 150.177 18.229,148.819 18.825,147.935 19.307 C 147.052 19.789,146.162 20.183,145.957 20.183 C 145.536 20.183,134.229 25.749,133.945 26.096 C 133.844 26.219,133.266 26.597,132.661 26.936 C 132.055 27.275,130.899 27.950,130.092 28.436 C 129.284 28.922,128.252 29.490,127.798 29.697 C 127.344 29.904,126.972 30.243,126.972 30.450 C 126.972 30.656,126.790 30.826,126.567 30.826 C 126.343 30.826,125.558 31.280,124.822 31.835 C 124.086 32.390,123.213 33.009,122.882 33.211 C 117.757 36.338,99.277 53.809,98.300 56.452 C 98.163 56.822,97.540 57.554,96.915 58.080 C 96.291 58.605,95.780 59.147,95.780 59.283 C 95.780 59.420,95.119 60.320,94.312 61.284 C 93.505 62.249,92.844 63.156,92.844 63.301 C 92.844 63.446,92.349 64.190,91.743 64.954 C 91.138 65.719,90.642 66.463,90.642 66.609 C 90.642 66.755,90.029 67.709,89.281 68.729 C 87.762 70.798,87.488 71.269,85.138 75.858 C 84.229 77.632,83.280 79.215,83.028 79.376 C 82.775 79.537,82.569 79.843,82.569 80.055 C 82.569 80.267,81.908 81.831,81.101 83.530 C 80.294 85.229,79.633 86.784,79.633 86.985 C 79.633 87.185,79.474 87.636,79.279 87.987 C 78.721 88.990,77.543 91.836,77.268 92.844 C 77.131 93.349,76.868 94.092,76.684 94.495 C 75.760 96.527,74.862 99.199,74.860 99.922 C 74.859 100.368,74.621 101.187,74.332 101.741 C 74.043 102.295,73.693 103.534,73.554 104.493 C 73.416 105.453,73.177 106.404,73.024 106.606 C 72.871 106.807,72.548 108.211,72.306 109.725 C 72.065 111.239,71.735 112.731,71.575 113.042 C 71.414 113.353,71.161 114.839,71.013 116.345 C 70.865 117.851,70.615 119.248,70.456 119.450 C 69.167 121.091,69.173 152.266,70.462 153.945 C 70.617 154.147,70.862 155.509,71.006 156.972 C 71.149 158.436,71.386 159.633,71.531 159.633 C 71.676 159.633,72.009 160.957,72.272 162.575 C 72.535 164.193,72.883 165.599,73.046 165.700 C 73.210 165.801,73.456 166.789,73.595 167.896 C 73.733 169.003,73.971 169.908,74.123 169.908 C 74.275 169.908,74.602 170.940,74.849 172.202 C 75.096 173.463,75.429 174.661,75.588 174.862 C 75.748 175.064,75.999 175.807,76.147 176.514 C 76.294 177.220,76.535 177.963,76.683 178.165 C 76.830 178.367,77.167 179.358,77.431 180.367 C 77.696 181.376,78.037 182.367,78.189 182.569 C 78.342 182.771,78.582 183.557,78.724 184.316 C 78.866 185.075,79.124 185.784,79.298 185.891 C 79.471 185.998,79.791 186.781,80.007 187.630 C 80.382 189.097,80.969 190.540,82.074 192.717 C 82.346 193.253,82.569 193.881,82.569 194.113 C 82.569 194.346,82.874 195.228,83.246 196.075 C 83.619 196.922,84.299 198.567,84.759 199.731 C 85.219 200.895,85.740 201.937,85.917 202.046 C 86.094 202.156,86.239 202.474,86.239 202.755 C 86.239 203.639,96.232 224.077,100.413 231.743 C 101.293 233.358,102.127 234.927,102.265 235.229 C 102.402 235.532,102.610 235.862,102.726 235.963 C 102.841 236.064,103.307 236.890,103.760 237.798 C 104.213 238.706,105.074 240.275,105.672 241.284 C 106.270 242.294,106.970 243.532,107.227 244.037 C 107.484 244.541,108.201 245.697,108.820 246.606 C 109.440 247.514,110.269 248.917,110.662 249.725 C 111.055 250.532,111.459 251.275,111.561 251.376 C 111.726 251.541,112.809 253.218,114.048 255.229 C 114.297 255.633,114.701 256.376,114.945 256.881 C 115.190 257.385,115.932 258.524,116.594 259.411 C 117.256 260.297,117.798 261.182,117.798 261.376 C 117.798 261.570,118.294 262.355,118.899 263.119 C 119.505 263.884,120.000 264.611,120.000 264.735 C 120.000 264.860,120.578 265.784,121.284 266.789 C 121.991 267.794,122.569 268.712,122.569 268.828 C 122.569 268.945,122.982 269.581,123.486 270.243 C 123.991 270.904,124.404 271.566,124.404 271.714 C 124.404 271.862,125.147 272.948,126.055 274.128 C 126.963 275.309,127.706 276.381,127.706 276.510 C 127.706 276.640,128.119 277.287,128.624 277.949 C 129.128 278.611,129.541 279.278,129.541 279.432 C 129.541 279.586,130.367 280.750,131.376 282.018 C 132.385 283.287,133.211 284.442,133.211 284.586 C 133.211 284.731,133.706 285.474,134.312 286.239 C 134.917 287.003,135.413 287.756,135.413 287.912 C 135.413 288.068,135.661 288.457,135.964 288.777 C 136.895 289.759,139.450 293.175,139.450 293.438 C 139.450 293.574,140.028 294.391,140.734 295.253 C 141.440 296.115,142.018 296.925,142.018 297.052 C 142.018 297.180,143.085 298.638,144.388 300.293 C 148.890 306.011,149.725 307.114,149.725 307.347 C 149.725 307.476,150.963 309.041,152.477 310.826 C 153.991 312.610,155.229 314.188,155.229 314.333 C 155.229 314.478,156.303 315.795,157.615 317.261 C 158.927 318.727,160.000 320.040,160.000 320.178 C 160.000 320.317,160.474 320.953,161.052 321.591 C 161.631 322.230,163.654 324.458,165.548 326.544 C 167.441 328.629,169.185 330.679,169.422 331.099 C 170.062 332.235,182.858 344.954,183.360 344.954 C 183.598 344.954,183.847 345.088,183.914 345.253 C 184.256 346.086,190.337 350.548,192.294 351.400 C 193.000 351.708,193.975 352.159,194.460 352.402 C 195.583 352.965,201.549 352.984,202.238 352.427 C 202.521 352.198,203.280 351.899,203.924 351.761 C 204.569 351.623,205.839 350.943,206.747 350.251 C 207.654 349.558,208.550 348.991,208.738 348.991 C 208.926 348.991,210.571 347.587,212.393 345.872 C 214.215 344.156,215.823 342.752,215.966 342.752 C 216.294 342.752,226.789 332.254,226.789 331.925 C 226.789 331.791,228.729 329.621,231.101 327.102 C 233.472 324.583,235.481 322.329,235.564 322.094 C 235.646 321.858,236.885 320.306,238.316 318.645 C 241.754 314.655,246.018 309.370,246.203 308.869 C 246.341 308.496,249.630 304.395,250.839 303.088 C 251.134 302.769,251.376 302.384,251.376 302.233 C 251.376 302.082,251.954 301.253,252.661 300.391 C 253.367 299.529,253.945 298.706,253.945 298.561 C 253.945 298.348,255.680 296.044,257.618 293.685 C 257.818 293.441,257.982 293.128,257.982 292.989 C 257.982 292.850,258.530 292.059,259.201 291.230 C 259.872 290.402,260.531 289.477,260.665 289.174 C 260.800 288.872,261.746 287.468,262.768 286.055 C 263.790 284.642,266.865 280.101,269.601 275.963 C 272.337 271.826,274.888 267.993,275.270 267.446 C 275.651 266.899,275.963 266.353,275.963 266.231 C 275.963 266.110,276.541 265.254,277.248 264.329 C 277.954 263.404,278.532 262.488,278.532 262.294 C 278.532 262.099,279.028 261.315,279.633 260.550 C 280.239 259.786,280.734 259.002,280.734 258.807 C 280.734 258.613,281.276 257.729,281.938 256.842 C 282.601 255.955,283.347 254.817,283.597 254.312 C 283.847 253.807,284.455 252.734,284.948 251.927 C 285.442 251.119,286.108 249.963,286.429 249.358 C 286.749 248.752,287.572 247.349,288.257 246.239 C 288.942 245.128,289.813 243.642,290.194 242.936 C 290.574 242.229,291.218 241.073,291.625 240.367 C 292.459 238.918,294.575 235.184,295.410 233.688 C 295.714 233.143,296.777 231.079,297.772 229.101 C 298.767 227.123,299.784 225.257,300.033 224.954 C 300.560 224.310,306.789 211.928,306.789 211.523 C 306.789 211.267,308.319 207.958,310.851 202.738 C 311.443 201.519,311.927 200.381,311.927 200.209 C 311.927 200.037,312.275 199.136,312.700 198.205 C 313.126 197.275,313.678 196.018,313.929 195.413 C 314.179 194.807,314.739 193.523,315.173 192.559 C 315.608 191.595,315.963 190.636,315.963 190.429 C 315.963 190.221,316.277 189.359,316.661 188.512 C 317.044 187.665,317.746 185.817,318.220 184.404 C 318.695 182.991,319.206 181.780,319.358 181.713 C 319.509 181.645,319.633 181.377,319.633 181.117 C 319.633 180.633,321.235 175.451,321.794 174.128 C 321.965 173.725,322.289 172.651,322.515 171.743 C 323.699 166.979,324.164 165.252,324.440 164.587 C 324.608 164.183,324.919 162.945,325.132 161.835 C 325.344 160.725,325.757 158.578,326.049 157.064 C 326.341 155.550,326.586 153.702,326.593 152.957 C 326.600 152.212,326.771 151.501,326.972 151.376 C 327.429 151.094,327.482 121.599,327.026 121.318 C 326.854 121.211,326.603 119.937,326.468 118.486 C 326.226 115.879,324.991 109.862,324.407 108.440 C 324.137 107.784,323.866 106.764,322.553 101.468 C 322.353 100.661,322.034 99.670,321.846 99.266 C 321.657 98.862,321.340 97.954,321.141 97.248 C 320.670 95.577,319.708 92.857,319.259 91.927 C 319.064 91.523,318.649 90.453,318.338 89.549 C 318.026 88.645,317.447 87.355,317.051 86.684 C 316.655 86.012,316.330 85.294,316.330 85.088 C 316.330 84.557,311.739 75.444,310.255 73.028 C 309.572 71.917,308.810 70.596,308.560 70.092 C 308.310 69.587,307.644 68.573,307.080 67.837 C 306.516 67.102,306.055 66.317,306.055 66.094 C 306.055 65.871,305.890 65.688,305.688 65.688 C 305.486 65.688,305.321 65.499,305.321 65.267 C 305.321 65.036,304.743 64.141,304.037 63.279 C 303.330 62.417,302.752 61.571,302.752 61.400 C 302.752 61.228,302.009 60.239,301.101 59.201 C 300.193 58.162,299.450 57.231,299.450 57.132 C 299.450 56.442,290.697 47.105,286.346 43.154 C 283.966 40.993,281.523 38.739,280.917 38.144 C 280.312 37.550,279.682 37.064,279.517 37.064 C 279.352 37.064,278.331 36.362,277.248 35.505 C 274.003 32.934,270.601 30.459,270.313 30.459 C 270.164 30.459,269.502 30.046,268.840 29.541 C 268.178 29.037,267.517 28.624,267.371 28.624 C 267.225 28.624,266.414 28.155,265.571 27.582 C 261.699 24.954,252.817 20.586,246.789 18.347 C 245.578 17.897,244.339 17.409,244.037 17.263 C 243.734 17.117,242.000 16.541,240.183 15.983 C 238.367 15.425,236.360 14.738,235.724 14.456 C 235.088 14.175,234.263 13.941,233.889 13.936 C 233.516 13.931,232.236 13.601,231.044 13.202 C 229.852 12.803,228.440 12.477,227.906 12.477 C 227.373 12.477,226.779 12.321,226.587 12.130 C 226.395 11.939,224.670 11.586,222.752 11.347 C 220.835 11.107,219.088 10.771,218.870 10.600 C 218.652 10.429,215.632 10.177,212.158 10.041 C 208.685 9.904,205.757 9.653,205.652 9.483 C 205.402 9.078,185.055 9.080,184.805 9.486 M197.064 64.156 C 199.587 64.360,201.769 64.541,201.914 64.557 C 202.423 64.615,203.035 66.209,203.323 68.230 C 203.484 69.355,203.802 71.596,204.030 73.211 C 204.589 77.171,204.097 76.792,214.495 81.278 C 217.119 82.410,220.359 83.907,221.695 84.604 C 224.872 86.262,224.912 86.255,227.997 83.566 C 236.008 76.583,237.090 76.789,246.198 87.019 C 251.784 93.294,251.932 93.605,250.597 96.253 C 249.874 97.685,249.065 98.799,245.413 103.393 C 243.666 105.590,243.548 104.938,246.972 112.020 C 248.587 115.360,249.908 118.278,249.908 118.504 C 249.908 119.097,252.754 124.672,253.197 124.945 C 253.987 125.434,257.558 126.161,260.333 126.398 C 265.768 126.863,265.688 126.628,265.688 142.201 C 265.688 151.450,265.910 150.989,261.284 151.375 C 253.822 151.998,252.289 152.932,250.447 157.980 C 248.742 162.655,248.724 162.647,239.016 153.243 L 232.710 147.135 232.547 143.751 C 231.233 116.568,217.360 100.267,193.945 98.396 C 183.527 97.563,175.080 99.788,167.654 105.321 C 166.435 106.229,164.793 107.437,164.005 108.005 C 163.217 108.572,162.090 109.738,161.501 110.595 C 160.911 111.451,160.143 112.389,159.794 112.679 C 158.675 113.608,155.586 118.564,152.741 123.994 L 149.976 129.272 150.209 139.774 L 150.442 150.275 152.355 154.097 C 154.010 157.401,155.091 159.179,158.403 164.037 C 164.278 172.655,177.816 179.868,189.778 180.754 C 196.542 181.254,197.834 181.991,205.780 189.886 C 213.149 197.208,213.130 197.116,207.872 199.743 C 206.071 200.643,205.139 201.352,204.805 202.078 C 203.906 204.030,203.303 207.004,203.303 209.489 C 203.303 213.638,202.795 213.821,190.275 214.184 C 179.741 214.490,178.734 213.998,178.463 208.415 C 178.130 201.591,177.642 200.997,169.896 197.983 C 165.764 196.375,161.898 194.752,159.654 193.682 C 157.148 192.488,156.481 192.648,153.085 195.260 C 145.850 200.825,145.349 200.755,137.637 193.097 C 128.831 184.351,128.822 184.299,134.930 176.683 C 137.424 173.573,137.453 173.416,136.135 170.239 C 134.017 165.134,131.651 159.084,130.780 156.544 C 129.340 152.341,128.889 152.068,122.222 151.353 C 114.838 150.561,113.888 149.032,114.248 138.532 C 114.611 127.975,115.161 127.184,122.670 126.412 C 128.977 125.763,128.312 126.656,136.015 108.470 C 136.692 106.871,137.205 105.517,137.155 105.461 C 128.467 95.607,128.557 94.045,138.388 84.046 C 144.890 77.433,146.477 77.171,151.927 81.813 C 153.037 82.759,154.475 83.900,155.122 84.349 L 156.299 85.165 158.509 84.440 C 160.815 83.683,167.678 81.122,172.579 79.190 C 175.782 77.926,177.096 76.681,177.444 74.576 C 177.569 73.825,177.810 72.798,177.981 72.294 C 178.153 71.789,178.369 70.303,178.462 68.991 C 178.862 63.344,180.803 62.839,197.064 64.156 M197.457 108.770 C 208.718 110.598,218.875 119.916,221.097 130.459 C 221.472 132.239,221.641 135.352,221.645 140.604 L 221.651 148.180 231.468 158.125 C 247.648 174.519,269.510 197.059,269.875 197.726 C 270.062 198.068,271.698 199.917,273.509 201.835 C 276.480 204.980,278.138 206.971,280.655 210.413 C 286.326 218.170,278.901 231.193,268.807 231.193 C 264.677 231.193,263.064 230.233,256.147 223.657 C 254.835 222.410,253.383 221.139,252.920 220.833 C 252.163 220.332,244.159 212.676,225.248 194.363 C 201.117 170.995,200.826 170.768,194.183 170.265 C 177.133 168.974,165.529 160.365,161.054 145.688 C 159.835 141.692,160.676 130.166,162.353 127.872 C 163.100 126.851,163.758 127.295,169.724 132.844 C 172.654 135.569,177.225 139.821,179.883 142.294 C 182.540 144.766,184.991 146.789,185.329 146.789 C 186.587 146.789,198.704 133.771,198.471 132.671 C 198.302 131.880,194.997 128.021,188.073 120.534 C 179.508 111.271,179.021 110.550,180.459 109.265 C 181.678 108.175,191.950 107.876,197.457 108.770 " stroke="none" fill="#ecdc44" fill-rule="evenodd"></path></g></svg>