<svg id="svg" version="1.1" width="400" height="366.70934699103714" viewBox="0 0 400 366.70934699103714" xmlns="http://www.w3.org/2000/svg" xmlns:xlink="http://www.w3.org/1999/xlink" ><g id="svgg"><path id="path0" d="M180.698 64.176 C 178.949 64.981,178.739 65.402,178.477 68.619 C 178.370 69.934,178.146 71.505,177.979 72.110 C 177.813 72.716,177.573 73.825,177.447 74.576 C 176.961 77.477,176.319 77.859,164.588 82.218 C 155.314 85.664,156.612 85.746,151.389 81.383 C 146.484 77.286,144.821 77.581,138.803 83.620 C 128.675 93.782,128.483 95.212,136.050 104.175 L 137.238 105.582 135.936 108.663 C 135.219 110.357,134.488 112.073,134.311 112.477 C 134.133 112.881,133.461 114.450,132.818 115.963 C 128.808 125.393,128.390 125.823,122.670 126.412 C 115.150 127.185,114.578 127.995,114.238 138.349 C 113.887 149.053,114.811 150.558,122.222 151.353 C 129.705 152.155,128.892 151.259,133.419 163.696 C 133.681 164.416,134.333 165.985,134.868 167.182 C 137.670 173.454,137.670 173.352,134.888 176.697 C 128.828 183.985,128.902 184.422,137.637 193.097 C 145.272 200.678,145.845 200.772,152.709 195.563 C 157.202 192.152,155.712 192.084,165.321 196.145 C 166.936 196.827,169.413 197.828,170.826 198.370 C 177.365 200.877,178.145 201.899,178.460 208.377 C 178.732 213.968,179.790 214.488,190.275 214.184 C 202.883 213.818,203.015 213.768,203.370 209.248 C 203.879 202.762,204.458 201.598,208.153 199.633 C 213.184 196.958,213.247 197.185,205.308 189.383 C 197.828 182.033,196.428 181.249,189.908 180.758 C 172.874 179.473,159.263 169.361,151.324 152.091 C 150.518 150.338,150.458 149.666,150.224 139.756 L 149.976 129.274 152.547 124.361 C 160.568 109.032,169.355 101.353,181.432 99.120 C 182.585 98.907,183.684 98.637,183.874 98.519 C 184.478 98.146,195.914 98.271,197.718 98.670 C 198.671 98.880,200.606 99.304,202.018 99.612 C 205.039 100.270,211.750 103.486,214.822 105.748 C 226.409 114.279,231.668 125.556,232.547 143.753 L 232.711 147.139 239.199 153.429 C 248.728 162.666,248.737 162.670,250.447 157.980 C 252.295 152.913,253.837 151.982,261.395 151.366 C 265.927 150.997,265.688 151.505,265.688 142.232 C 265.688 126.781,265.730 126.915,260.734 126.437 C 252.896 125.686,252.964 125.744,249.140 116.697 C 248.500 115.183,247.090 112.172,246.007 110.006 C 243.494 104.983,243.349 105.678,248.064 100.121 C 249.543 98.378,251.361 95.072,251.369 94.110 C 251.393 91.468,238.757 78.532,236.153 78.532 C 234.410 78.532,227.143 83.412,225.945 85.388 C 225.488 86.142,224.609 85.976,221.835 84.611 C 220.422 83.916,217.119 82.424,214.495 81.295 C 204.504 76.999,204.535 77.022,204.048 73.211 C 203.325 67.550,202.918 65.513,202.411 65.006 C 201.228 63.823,182.979 63.125,180.698 64.176 M181.965 108.516 C 180.633 108.721,179.676 109.852,179.945 110.903 C 180.214 111.956,180.851 112.710,188.073 120.523 C 193.819 126.739,198.221 131.817,198.477 132.525 C 198.843 133.539,186.645 146.789,185.346 146.789 C 184.999 146.789,182.498 144.709,179.788 142.168 C 162.785 126.216,163.046 126.420,162.085 128.349 C 160.541 131.448,159.914 141.922,161.047 145.688 C 162.714 151.229,165.583 156.067,169.558 160.042 C 171.691 162.175,172.733 162.991,175.821 164.947 C 180.847 168.130,186.106 169.654,194.183 170.265 C 200.836 170.769,200.811 170.750,225.385 194.618 C 228.952 198.083,232.536 201.495,233.348 202.202 C 234.160 202.908,238.952 207.450,243.998 212.294 C 249.043 217.138,253.717 221.564,254.384 222.129 C 255.051 222.695,257.226 224.626,259.218 226.421 C 263.749 230.504,265.137 231.193,268.841 231.193 C 279.255 231.193,286.375 217.961,280.285 209.927 C 279.624 209.055,278.808 207.929,278.471 207.425 C 278.135 206.921,276.154 204.690,274.068 202.466 C 271.982 200.242,270.100 198.108,269.886 197.725 C 269.671 197.342,263.848 191.215,256.945 184.110 C 250.042 177.006,242.589 169.308,240.383 167.005 C 238.177 164.702,233.060 159.491,229.012 155.425 L 221.651 148.033 221.645 140.530 C 221.637 131.647,221.246 129.320,218.958 124.579 C 213.150 112.543,198.149 106.029,181.965 108.516 " stroke="none" fill="#fcfcfc" fill-rule="evenodd"></path><path id="path1" d="M184.805 9.486 C 184.699 9.658,183.029 9.909,181.094 10.045 C 179.160 10.181,177.296 10.439,176.954 10.617 C 176.611 10.796,174.927 11.135,173.211 11.370 C 171.495 11.605,169.761 11.934,169.358 12.103 C 168.683 12.384,166.403 12.988,162.202 13.999 C 161.294 14.218,160.385 14.521,160.183 14.673 C 159.982 14.825,158.949 15.153,157.889 15.402 C 156.829 15.650,155.869 16.002,155.757 16.184 C 155.645 16.365,155.274 16.515,154.932 16.516 C 154.591 16.517,153.874 16.747,153.338 17.026 C 152.803 17.306,151.729 17.736,150.953 17.982 C 150.177 18.229,148.819 18.825,147.935 19.307 C 147.052 19.789,146.162 20.183,145.957 20.183 C 145.536 20.183,134.229 25.749,133.945 26.096 C 133.844 26.219,133.266 26.597,132.661 26.936 C 132.055 27.275,130.899 27.950,130.092 28.436 C 129.284 28.922,128.252 29.490,127.798 29.697 C 127.344 29.904,126.972 30.243,126.972 30.450 C 126.972 30.656,126.790 30.826,126.567 30.826 C 126.343 30.826,125.558 31.280,124.822 31.835 C 124.086 32.390,123.213 33.009,122.882 33.211 C 118.151 36.098,98.349 54.763,98.349 56.336 C 98.349 56.594,97.771 57.312,97.064 57.932 C 96.358 58.553,95.780 59.166,95.780 59.296 C 95.780 59.425,95.119 60.320,94.312 61.284 C 93.505 62.249,92.844 63.156,92.844 63.301 C 92.844 63.446,92.385 64.166,91.824 64.901 C 91.262 65.637,90.561 66.721,90.264 67.311 C 89.967 67.900,89.353 68.809,88.898 69.329 C 87.996 70.361,87.609 71.032,85.138 75.858 C 84.229 77.632,83.280 79.215,83.028 79.376 C 82.775 79.537,82.569 79.843,82.569 80.055 C 82.569 80.267,81.908 81.831,81.101 83.530 C 80.294 85.229,79.633 86.784,79.633 86.985 C 79.633 87.185,79.474 87.636,79.279 87.987 C 78.721 88.990,77.543 91.836,77.268 92.844 C 77.131 93.349,76.868 94.092,76.684 94.495 C 75.760 96.527,74.862 99.199,74.860 99.922 C 74.859 100.368,74.621 101.187,74.332 101.741 C 74.043 102.295,73.693 103.534,73.554 104.493 C 73.416 105.453,73.177 106.404,73.024 106.606 C 72.871 106.807,72.548 108.211,72.306 109.725 C 72.065 111.239,71.735 112.731,71.575 113.042 C 71.414 113.353,71.161 114.839,71.013 116.345 C 70.865 117.851,70.615 119.248,70.456 119.450 C 69.167 121.091,69.173 152.266,70.462 153.945 C 70.617 154.147,70.862 155.509,71.006 156.972 C 71.149 158.436,71.386 159.633,71.531 159.633 C 71.676 159.633,72.009 160.957,72.272 162.575 C 72.535 164.193,72.883 165.599,73.046 165.700 C 73.210 165.801,73.456 166.789,73.595 167.896 C 73.733 169.003,73.971 169.908,74.123 169.908 C 74.275 169.908,74.594 170.894,74.831 172.100 C 75.068 173.305,75.502 174.750,75.794 175.311 C 76.086 175.872,76.327 176.669,76.328 177.083 C 76.329 177.496,76.471 177.992,76.643 178.183 C 76.815 178.375,77.171 179.358,77.434 180.367 C 77.697 181.376,78.037 182.367,78.189 182.569 C 78.342 182.771,78.582 183.557,78.724 184.316 C 78.866 185.075,79.124 185.784,79.298 185.891 C 79.471 185.998,79.791 186.781,80.007 187.630 C 80.382 189.097,80.969 190.540,82.074 192.717 C 82.346 193.253,82.569 193.881,82.569 194.113 C 82.569 194.346,82.874 195.228,83.246 196.075 C 83.619 196.922,84.299 198.567,84.759 199.731 C 85.219 200.895,85.740 201.937,85.917 202.046 C 86.094 202.156,86.239 202.474,86.239 202.755 C 86.239 203.680,97.127 226.123,97.691 226.361 C 97.851 226.428,97.982 226.800,97.982 227.187 C 97.982 227.573,98.271 228.182,98.624 228.540 C 98.977 228.898,99.672 230.095,100.168 231.201 C 100.664 232.306,101.366 233.649,101.728 234.185 C 102.089 234.721,102.385 235.326,102.385 235.531 C 102.385 235.735,102.509 235.957,102.661 236.024 C 102.812 236.092,103.307 236.890,103.760 237.798 C 104.213 238.706,105.076 240.275,105.677 241.284 C 106.277 242.294,107.008 243.615,107.301 244.220 C 107.593 244.826,108.135 245.651,108.503 246.055 C 108.872 246.459,109.670 247.780,110.275 248.991 C 110.881 250.202,111.459 251.275,111.561 251.376 C 111.726 251.541,112.809 253.218,114.048 255.229 C 114.297 255.633,114.701 256.376,114.945 256.881 C 115.190 257.385,115.932 258.524,116.594 259.411 C 117.256 260.297,117.798 261.182,117.798 261.376 C 117.798 261.570,118.294 262.355,118.899 263.119 C 119.505 263.884,120.000 264.611,120.000 264.735 C 120.000 264.860,120.578 265.784,121.284 266.789 C 121.991 267.794,122.569 268.712,122.569 268.828 C 122.569 268.945,122.982 269.581,123.486 270.243 C 123.991 270.904,124.404 271.566,124.404 271.714 C 124.404 271.862,125.147 272.948,126.055 274.128 C 126.963 275.309,127.706 276.381,127.706 276.510 C 127.706 276.640,128.119 277.287,128.624 277.949 C 129.128 278.611,129.541 279.278,129.541 279.432 C 129.541 279.586,130.367 280.750,131.376 282.018 C 132.385 283.287,133.211 284.442,133.211 284.586 C 133.211 284.731,133.706 285.474,134.312 286.239 C 134.917 287.003,135.413 287.756,135.413 287.912 C 135.413 288.068,135.661 288.457,135.964 288.777 C 136.895 289.759,139.450 293.175,139.450 293.438 C 139.450 293.574,140.028 294.391,140.734 295.253 C 141.440 296.115,142.018 296.958,142.018 297.126 C 142.018 297.294,142.638 298.118,143.394 298.957 C 144.151 299.795,144.936 300.722,145.138 301.015 C 145.339 301.308,145.827 302.026,146.222 302.609 C 146.616 303.192,147.566 304.436,148.332 305.372 C 149.098 306.308,149.725 307.188,149.725 307.328 C 149.725 307.468,150.963 309.041,152.477 310.826 C 153.991 312.610,155.229 314.188,155.229 314.333 C 155.229 314.478,156.303 315.795,157.615 317.261 C 158.927 318.727,160.000 320.040,160.000 320.178 C 160.000 320.317,160.474 320.953,161.052 321.591 C 161.631 322.230,163.654 324.458,165.548 326.544 C 167.441 328.629,169.180 330.669,169.410 331.077 C 169.946 332.023,182.824 344.954,183.231 344.954 C 183.398 344.954,184.143 345.531,184.887 346.235 C 185.630 346.940,186.332 347.518,186.447 347.520 C 186.562 347.522,187.305 348.101,188.098 348.807 C 188.892 349.513,189.722 350.091,189.944 350.091 C 190.165 350.092,190.727 350.422,191.193 350.826 C 191.658 351.229,192.220 351.561,192.441 351.562 C 192.663 351.563,193.339 351.841,193.945 352.180 C 195.263 352.917,201.405 353.101,202.237 352.428 C 202.520 352.199,203.280 351.899,203.924 351.761 C 204.569 351.623,205.839 350.943,206.747 350.251 C 207.654 349.558,208.550 348.991,208.738 348.991 C 208.926 348.991,210.571 347.587,212.393 345.872 C 214.215 344.156,215.823 342.752,215.966 342.752 C 216.329 342.752,226.788 332.237,226.795 331.864 C 226.799 331.697,228.777 329.495,231.193 326.972 C 233.608 324.450,235.587 322.253,235.590 322.091 C 235.594 321.930,236.794 320.409,238.257 318.712 C 241.734 314.679,246.016 309.375,246.203 308.869 C 246.341 308.496,249.630 304.395,250.839 303.088 C 251.134 302.769,251.376 302.373,251.376 302.209 C 251.376 302.045,251.954 301.205,252.661 300.343 C 253.367 299.481,253.945 298.668,253.945 298.537 C 253.945 298.343,255.747 295.963,257.618 293.685 C 257.818 293.441,257.982 293.128,257.982 292.989 C 257.982 292.850,258.530 292.059,259.201 291.230 C 259.872 290.402,260.531 289.477,260.665 289.174 C 260.800 288.872,261.746 287.468,262.768 286.055 C 265.686 282.021,274.495 268.715,274.495 268.341 C 274.495 268.155,274.826 267.705,275.229 267.339 C 275.633 266.974,275.963 266.526,275.963 266.343 C 275.963 266.160,276.541 265.254,277.248 264.329 C 277.954 263.404,278.532 262.488,278.532 262.294 C 278.532 262.099,279.028 261.315,279.633 260.550 C 280.239 259.786,280.734 259.002,280.734 258.807 C 280.734 258.613,281.276 257.729,281.938 256.842 C 282.601 255.955,283.347 254.817,283.597 254.312 C 283.847 253.807,284.455 252.734,284.948 251.927 C 285.442 251.119,286.108 249.963,286.429 249.358 C 286.749 248.752,287.572 247.349,288.257 246.239 C 289.520 244.191,290.212 242.972,291.797 240.000 C 292.281 239.092,292.947 237.936,293.277 237.431 C 294.099 236.173,295.740 233.171,297.990 228.807 C 299.031 226.789,300.487 224.063,301.226 222.751 C 301.964 221.438,302.974 219.456,303.468 218.347 C 303.963 217.238,304.553 216.083,304.779 215.780 C 305.005 215.477,305.646 214.156,306.203 212.844 C 307.241 210.398,308.963 206.658,310.856 202.738 C 311.445 201.519,311.927 200.381,311.927 200.209 C 311.927 200.037,312.275 199.136,312.700 198.205 C 313.126 197.275,313.678 196.018,313.929 195.413 C 314.179 194.807,314.739 193.523,315.173 192.559 C 315.608 191.595,315.963 190.636,315.963 190.429 C 315.963 190.221,316.277 189.359,316.661 188.512 C 317.044 187.665,317.746 185.817,318.220 184.404 C 318.695 182.991,319.206 181.780,319.358 181.713 C 319.509 181.645,319.633 181.377,319.633 181.117 C 319.633 180.633,321.235 175.451,321.794 174.128 C 321.965 173.725,322.289 172.651,322.515 171.743 C 323.699 166.979,324.164 165.252,324.440 164.587 C 324.608 164.183,324.919 162.945,325.132 161.835 C 325.344 160.725,325.757 158.578,326.049 157.064 C 326.341 155.550,326.586 153.702,326.593 152.957 C 326.600 152.212,326.771 151.501,326.972 151.376 C 327.429 151.094,327.482 121.599,327.026 121.318 C 326.854 121.211,326.603 119.937,326.468 118.486 C 326.212 115.736,324.955 109.709,324.371 108.440 C 324.186 108.037,323.873 106.835,323.676 105.770 C 323.479 104.705,323.171 103.549,322.992 103.201 C 322.812 102.853,322.546 101.908,322.401 101.101 C 322.255 100.294,322.010 99.468,321.856 99.266 C 321.702 99.064,321.398 98.239,321.181 97.431 C 320.717 95.705,319.761 92.967,319.259 91.927 C 319.064 91.523,318.649 90.453,318.338 89.549 C 318.026 88.645,317.447 87.355,317.051 86.684 C 316.655 86.012,316.330 85.294,316.330 85.088 C 316.330 84.552,311.729 75.426,310.250 73.028 C 309.565 71.917,308.768 70.512,308.479 69.904 C 308.190 69.297,307.526 68.339,307.004 67.775 C 306.482 67.212,306.055 66.512,306.055 66.220 C 306.055 65.927,305.890 65.688,305.688 65.688 C 305.486 65.688,305.321 65.499,305.321 65.267 C 305.321 65.036,304.743 64.141,304.037 63.279 C 303.330 62.417,302.752 61.571,302.752 61.400 C 302.752 61.228,302.009 60.239,301.101 59.201 C 300.193 58.162,299.450 57.231,299.450 57.132 C 299.450 56.442,290.697 47.105,286.346 43.154 C 283.966 40.993,281.523 38.739,280.917 38.144 C 280.312 37.550,279.682 37.064,279.517 37.064 C 279.352 37.064,278.330 36.362,277.246 35.505 C 276.162 34.647,274.683 33.532,273.959 33.028 C 273.235 32.523,272.192 31.739,271.642 31.285 C 271.092 30.831,270.507 30.459,270.342 30.459 C 270.178 30.459,269.502 30.046,268.840 29.541 C 268.178 29.037,267.517 28.624,267.371 28.624 C 267.225 28.624,266.414 28.155,265.571 27.582 C 261.699 24.954,252.817 20.586,246.789 18.347 C 245.578 17.897,244.339 17.409,244.037 17.263 C 243.734 17.117,242.000 16.541,240.183 15.983 C 238.367 15.425,236.360 14.738,235.724 14.456 C 235.088 14.175,234.263 13.941,233.889 13.936 C 233.516 13.931,232.236 13.601,231.044 13.202 C 229.852 12.803,228.440 12.477,227.906 12.477 C 227.373 12.477,226.779 12.321,226.587 12.130 C 226.395 11.939,224.670 11.586,222.752 11.347 C 220.835 11.107,219.088 10.771,218.870 10.600 C 218.652 10.429,215.632 10.177,212.158 10.041 C 208.685 9.904,205.757 9.653,205.652 9.483 C 205.402 9.078,185.055 9.080,184.805 9.486 M197.188 64.137 C 203.316 64.602,202.873 64.016,204.048 73.211 C 204.535 77.022,204.504 76.999,214.495 81.295 C 217.119 82.424,220.422 83.916,221.835 84.611 C 224.609 85.976,225.488 86.142,225.945 85.388 C 227.143 83.412,234.410 78.532,236.153 78.532 C 238.757 78.532,251.393 91.468,251.369 94.110 C 251.361 95.072,249.543 98.378,248.064 100.121 C 243.349 105.678,243.494 104.983,246.007 110.006 C 247.090 112.172,248.500 115.183,249.140 116.697 C 252.964 125.744,252.896 125.686,260.734 126.437 C 265.730 126.915,265.688 126.781,265.688 142.232 C 265.688 151.505,265.927 150.997,261.395 151.366 C 253.837 151.982,252.295 152.913,250.447 157.980 C 248.737 162.670,248.728 162.666,239.199 153.429 L 232.711 147.139 232.547 143.753 C 231.668 125.556,226.409 114.279,214.822 105.748 C 211.750 103.486,205.039 100.270,202.018 99.612 C 200.606 99.304,198.671 98.880,197.718 98.670 C 195.914 98.271,184.478 98.146,183.874 98.519 C 183.684 98.637,182.585 98.907,181.432 99.120 C 169.355 101.353,160.568 109.032,152.547 124.361 L 149.976 129.274 150.224 139.756 C 150.458 149.666,150.518 150.338,151.324 152.091 C 159.263 169.361,172.874 179.473,189.908 180.758 C 196.428 181.249,197.828 182.033,205.308 189.383 C 213.247 197.185,213.184 196.958,208.153 199.633 C 204.458 201.598,203.879 202.762,203.370 209.248 C 203.015 213.768,202.883 213.818,190.275 214.184 C 179.790 214.488,178.732 213.968,178.460 208.377 C 178.145 201.899,177.365 200.877,170.826 198.370 C 169.413 197.828,166.936 196.827,165.321 196.145 C 155.712 192.084,157.202 192.152,152.709 195.563 C 145.845 200.772,145.272 200.678,137.637 193.097 C 128.902 184.422,128.828 183.985,134.888 176.697 C 137.670 173.352,137.670 173.454,134.868 167.182 C 134.333 165.985,133.681 164.416,133.419 163.696 C 128.892 151.259,129.705 152.155,122.222 151.353 C 114.811 150.558,113.887 149.053,114.238 138.349 C 114.578 127.995,115.150 127.185,122.670 126.412 C 128.390 125.823,128.808 125.393,132.818 115.963 C 133.461 114.450,134.133 112.881,134.311 112.477 C 134.488 112.073,135.219 110.357,135.936 108.663 L 137.238 105.582 136.050 104.175 C 128.483 95.212,128.675 93.782,138.803 83.620 C 144.821 77.581,146.484 77.286,151.389 81.383 C 156.612 85.746,155.314 85.664,164.588 82.218 C 176.319 77.859,176.961 77.477,177.447 74.576 C 177.573 73.825,177.813 72.716,177.979 72.110 C 178.146 71.505,178.370 69.934,178.477 68.619 C 178.915 63.246,180.486 62.870,197.188 64.137 M196.931 108.654 C 208.246 110.228,218.849 119.795,221.097 130.459 C 221.471 132.235,221.641 135.343,221.645 140.530 L 221.651 148.033 229.012 155.425 C 233.060 159.491,238.177 164.702,240.383 167.005 C 242.589 169.308,250.042 177.006,256.945 184.110 C 263.848 191.215,269.671 197.342,269.886 197.725 C 270.100 198.108,271.982 200.242,274.068 202.466 C 276.154 204.690,278.135 206.921,278.471 207.425 C 278.808 207.929,279.624 209.055,280.285 209.927 C 286.375 217.961,279.255 231.193,268.841 231.193 C 265.137 231.193,263.749 230.504,259.218 226.421 C 257.226 224.626,255.051 222.695,254.384 222.129 C 253.717 221.564,249.043 217.138,243.998 212.294 C 238.952 207.450,234.160 202.908,233.348 202.202 C 232.536 201.495,228.952 198.083,225.385 194.618 C 200.811 170.750,200.836 170.769,194.183 170.265 C 186.106 169.654,180.847 168.130,175.821 164.947 C 172.733 162.991,171.691 162.175,169.558 160.042 C 165.583 156.067,162.714 151.229,161.047 145.688 C 159.914 141.922,160.541 131.448,162.085 128.349 C 163.046 126.420,162.785 126.216,179.788 142.168 C 182.498 144.709,184.999 146.789,185.346 146.789 C 186.645 146.789,198.843 133.539,198.477 132.525 C 198.221 131.817,193.819 126.739,188.073 120.523 C 179.276 111.006,179.102 110.755,180.362 109.364 C 181.365 108.255,191.075 107.840,196.931 108.654 " stroke="none" fill="#5494f4" fill-rule="evenodd"></path></g></svg>